<?xml version="1.0" standalone="no"?>
<svg xmlns:xlink="http://www.w3.org/1999/xlink" id="wave" style="transform:rotate(0deg); transition: 0.3s" viewBox="0 0 1440 100" version="1.1" xmlns="http://www.w3.org/2000/svg"><defs><linearGradient id="sw-gradient-0" x1="0" x2="0" y1="1" y2="0"><stop stop-color="rgba(243, 106, 62, 1)" offset="0%"/><stop stop-color="rgba(255, 179, 11, 1)" offset="100%"/></linearGradient></defs><path style="transform:translate(0, 0px); opacity:1" fill="url(#sw-gradient-0)" d="M0,0L40,8.3C80,17,160,33,240,45C320,57,400,63,480,56.7C560,50,640,30,720,25C800,20,880,30,960,41.7C1040,53,1120,67,1200,63.3C1280,60,1360,40,1440,30C1520,20,1600,20,1680,26.7C1760,33,1840,47,1920,45C2000,43,2080,27,2160,30C2240,33,2320,57,2400,55C2480,53,2560,27,2640,28.3C2720,30,2800,60,2880,73.3C2960,87,3040,83,3120,75C3200,67,3280,53,3360,41.7C3440,30,3520,20,3600,15C3680,10,3760,10,3840,20C3920,30,4000,50,4080,56.7C4160,63,4240,57,4320,53.3C4400,50,4480,50,4560,51.7C4640,53,4720,57,4800,50C4880,43,4960,27,5040,28.3C5120,30,5200,50,5280,61.7C5360,73,5440,77,5520,68.3C5600,60,5680,40,5720,30L5760,20L5760,100L5720,100C5680,100,5600,100,5520,100C5440,100,5360,100,5280,100C5200,100,5120,100,5040,100C4960,100,4880,100,4800,100C4720,100,4640,100,4560,100C4480,100,4400,100,4320,100C4240,100,4160,100,4080,100C4000,100,3920,100,3840,100C3760,100,3680,100,3600,100C3520,100,3440,100,3360,100C3280,100,3200,100,3120,100C3040,100,2960,100,2880,100C2800,100,2720,100,2640,100C2560,100,2480,100,2400,100C2320,100,2240,100,2160,100C2080,100,2000,100,1920,100C1840,100,1760,100,1680,100C1600,100,1520,100,1440,100C1360,100,1280,100,1200,100C1120,100,1040,100,960,100C880,100,800,100,720,100C640,100,560,100,480,100C400,100,320,100,240,100C160,100,80,100,40,100L0,100Z"/></svg>